<svg viewBox="0 0 96 96" xmlns="http://www.w3.org/2000/svg" xmlns:xlink="http://www.w3.org/1999/xlink" id="Icons_ShareWithPerson" overflow="hidden"><path d="M30.5 36.79C23.5964 36.79 18 42.3864 18 49.29 18 56.1936 23.5964 61.79 30.5 61.79 37.4036 61.79 43 56.1936 43 49.29 43 42.3864 37.4036 36.79 30.5 36.79ZM30.5 41.63C32.4385 41.6245 34.0145 43.1915 34.02 45.13 34.0255 47.0685 32.4585 48.6444 30.52 48.65 28.5815 48.6555 27.0055 47.0885 27 45.15 27 45.1467 27 45.1433 27 45.14 27 43.2054 28.5654 41.6355 30.5 41.63ZM37.5 55.7 23.5 55.7 23.5 53C23.5133 52.4524 23.7699 51.9392 24.2 51.6 25.2395 50.8803 26.3921 50.3395 27.61 50 28.5502 49.7301 29.5219 49.5855 30.5 49.57 31.4791 49.5729 32.4525 49.7178 33.39 50 34.6303 50.3221 35.7933 50.89 36.81 51.67 37.2401 52.0092 37.4967 52.5224 37.51 53.07Z" stroke="none" stroke-width="1" stroke-linecap="butt" fill="#404040" fill-opacity="1"/><path d="M56.9 33.52 44.66 40.86C45.3494 42.0179 45.8999 43.2531 46.3 44.54L58.91 37C58.0664 35.9493 57.3886 34.7757 56.9 33.52Z" stroke="none" stroke-width="1" stroke-linecap="butt" fill="#404040" fill-opacity="1"/><circle cx="69" cy="28.79" r="9" stroke="none" stroke-width="1" stroke-linecap="butt" fill="#404040" fill-opacity="1"/><path d="M58.91 61.6 46.3 54C45.8999 55.2869 45.3494 56.5221 44.66 57.68L56.9 65.06C57.3913 63.8117 58.069 62.6451 58.91 61.6Z" stroke="none" stroke-width="1" stroke-linecap="butt" fill="#404040" fill-opacity="1"/><circle cx="69" cy="69.79" r="9" stroke="none" stroke-width="1" stroke-linecap="butt" fill="#404040" fill-opacity="1"/></svg>